# xmcd CD database file
#
# Track frame offsets:
#	150
#	9785
#	19690
#	38720
#	46960
#	59007
#	74905
#	101787
#	128170
#	151067
#	232015
#	243732
#	251385
#	262302
#
# Disc length: 3641 seconds
#
# Revision: 2
# Processed by: cddbd v1.4b41PL1 Copyright (c) Steve Scherf et al.
# Submitted via: Feurio! 1.50.2ß - http://www.feurio.com
#
DISCID=c40e370e
DTITLE=Peter Sculthorpe - Landscapes
DYEAR=1900
DGENRE=
TTITLE0=Requiem: Introit
TTITLE1=-"--: Kyrie
TTITLE2=-"--: Qui Mariam
TTITLE3=-"--: Lacrimosa
TTITLE4=-"--: Libera me
TTITLE5=-"--: Lux aeterna
TTITLE6=Djilile
TTITLE7=Tailitnama Song
TTITLE8=Mountains
TTITLE9=Landscape II
TTITLE10=Four Little Pieces: Morning Song
TTITLE11=-"--: Sea Chant
TTITLE12=-"--: Little Serenade
TTITLE13=-"--: Left Bank Waltz
EXTD=
EXTT0=
EXTT1=
EXTT2=
EXTT3=
EXTT4=
EXTT5=David Pereira -- cello
EXTT6=Geoffrey Tozer -- piano
EXTT7=David Pereira - cello - Geoffrey Tozer - piano
EXTT8=David Bollard - piano
EXTT9=The Seymour Group
EXTT10=
EXTT11=
EXTT12=
EXTT13=Peter Sculthorpe and Geoffrey Tozer - piano
PLAYORDER=
